<?xml version="1.0" encoding="utf-8"?>
<!-- Generator: Adobe Illustrator 16.0.0, SVG Export Plug-In . SVG Version: 6.00 Build 0)  -->
<!DOCTYPE svg PUBLIC "-//W3C//DTD SVG 1.1//EN" "http://www.w3.org/Graphics/SVG/1.1/DTD/svg11.dtd">
<svg version="1.1" id="Layer_1" xmlns="http://www.w3.org/2000/svg" xmlns:xlink="http://www.w3.org/1999/xlink" x="0px" y="0px"
	 width="938.549px" height="98.239px" viewBox="0 0 938.549 98.239" enable-background="new 0 0 938.549 98.239"
	 xml:space="preserve">
<g>
	<path fill="#FFFFFF" d="M26.768,77.919c-3.312,0-6.155-1.188-8.532-3.564c-2.376-2.376-3.564-5.22-3.564-8.532V20.319
		c3.313,0,6.156,1.188,8.533,3.564c2.375,2.376,3.563,5.22,3.563,8.532V77.919z"/>
	<path fill="#FFFFFF" d="M122.886,49.191v28.728c-3.312,0-6.155-1.188-8.531-3.564s-3.564-5.22-3.564-8.532V49.191
		c0-4.752-1.645-8.844-4.932-12.276c-3.289-3.431-7.309-5.148-12.061-5.148s-8.783,1.717-12.096,5.148
		c-3.312,3.432-4.968,7.524-4.968,12.276v16.632c0,3.36-1.177,6.217-3.528,8.568c-2.352,2.352-5.209,3.528-8.568,3.528V49.191
		c0-7.967,2.868-14.771,8.604-20.412c5.735-5.64,12.588-8.46,20.556-8.46c4.512,0,8.785,0.997,12.816,2.988
		c4.032,1.992,7.463,4.764,10.297,8.316c2.735-3.503,6.143-6.264,10.223-8.28c4.08-2.016,8.353-3.024,12.816-3.024
		c8.016,0,14.868,2.808,20.557,8.424c5.688,5.616,8.531,12.432,8.531,20.448v28.728c-3.312,0-6.156-1.188-8.531-3.564
		c-2.377-2.376-3.564-5.22-3.564-8.532V49.191c0-4.752-1.645-8.844-4.932-12.276c-3.289-3.431-7.309-5.148-12.061-5.148
		s-8.783,1.717-12.096,5.148C124.542,40.348,122.886,44.439,122.886,49.191z"/>
	<path fill="#FFFFFF" d="M233.046,49.191v28.728h-29.231c-7.968,0-14.821-2.795-20.556-8.388c-5.736-5.591-8.604-12.372-8.604-20.34
		c0-7.967,2.868-14.771,8.604-20.412c5.734-5.64,12.588-8.46,20.556-8.46s14.832,2.82,20.593,8.46
		C230.167,34.42,233.046,41.224,233.046,49.191z M220.807,66.471v-17.28c0-4.752-1.648-8.844-4.943-12.276
		c-3.295-3.431-7.323-5.148-12.085-5.148s-8.791,1.717-12.086,5.148c-3.295,3.432-4.941,7.524-4.941,12.276s1.646,8.82,4.941,12.204
		c3.295,3.384,7.324,5.076,12.086,5.076H220.807z"/>
	<path fill="#FFFFFF" d="M250.758,77.919h-12.097v-57.6c3.313,0,6.156,1.188,8.533,3.564c2.375,2.376,3.563,5.22,3.563,8.532v11.592
		h15.983c4.704,0,8.713-1.728,12.024-5.184c3.312-3.456,4.968-7.535,4.968-12.24v-5.4h12.097v5.4c0,4.608-1.044,8.94-3.132,12.996
		c-2.088,4.057-4.98,7.452-8.676,10.188c3.695,2.736,6.588,6.132,8.676,10.188c2.088,4.057,3.132,8.364,3.132,12.924v5.04h-12.097
		v-5.04c0-4.704-1.656-8.784-4.968-12.24c-3.312-3.456-7.32-5.184-12.024-5.184h-15.983V77.919z"/>
	<path fill="#FFFFFF" d="M330.604,77.919c-7.969,0-14.809-2.795-20.52-8.388c-5.713-5.591-8.568-12.372-8.568-20.34
		c0-7.967,2.855-14.771,8.568-20.412c5.711-5.64,12.551-8.46,20.52-8.46h17.064c0,3.168-1.129,5.868-3.385,8.1
		s-4.967,3.348-8.135,3.348h-5.545c-4.705,0-8.711,1.728-12.023,5.184c-3.313,3.456-4.969,7.536-4.969,12.24
		c0,4.705,1.656,8.76,4.969,12.168c3.313,3.409,7.318,5.112,12.023,5.112h5.545c3.168,0,5.879,1.116,8.135,3.348
		s3.385,4.932,3.385,8.1H330.604z M326.573,43.359h21.096c0,3.188-1.129,5.894-3.385,8.116c-2.256,2.222-4.967,3.333-8.135,3.333
		h-9.576c-1.584,0-2.929-0.543-4.032-1.63c-1.104-1.087-1.656-2.427-1.656-4.022c0-1.641,0.54-3.017,1.62-4.128
		C323.585,43.915,324.94,43.359,326.573,43.359z"/>
	<path fill="#FFFFFF" d="M412.396,77.919c-7.969,0-14.809-2.795-20.52-8.388c-5.713-5.591-8.568-12.372-8.568-20.34
		c0-7.967,2.855-14.771,8.568-20.412c5.711-5.64,12.551-8.46,20.52-8.46h16.992c0,3.168-1.115,5.868-3.348,8.1
		s-4.932,3.348-8.1,3.348h-5.545c-4.752,0-8.796,1.717-12.132,5.148c-3.337,3.432-5.004,7.524-5.004,12.276s1.667,8.82,5.004,12.204
		c3.336,3.384,7.38,5.076,12.132,5.076h5.545c3.168,0,5.867,1.116,8.1,3.348s3.348,4.932,3.348,8.1H412.396z"/>
	<path fill="#FFFFFF" d="M460.852,20.319c7.968,0,14.819,2.82,20.556,8.46c5.735,5.641,8.604,12.445,8.604,20.412
		c0,7.968-2.869,14.749-8.604,20.34c-5.736,5.593-12.588,8.388-20.556,8.388c-7.969,0-14.809-2.795-20.521-8.388
		c-5.713-5.591-8.568-12.372-8.568-20.34c0-7.967,2.855-14.771,8.568-20.412C446.043,23.14,452.883,20.319,460.852,20.319z
		 M460.852,31.768c-4.752,0-8.772,1.717-12.06,5.148c-3.289,3.432-4.933,7.524-4.933,12.276s1.644,8.82,4.933,12.204
		c3.287,3.384,7.308,5.076,12.06,5.076s8.784-1.692,12.096-5.076c3.313-3.384,4.968-7.452,4.968-12.204s-1.655-8.844-4.968-12.276
		C469.636,33.484,465.604,31.768,460.852,31.768z"/>
	<path fill="#FFFFFF" d="M523.779,20.319c7.967,0,14.819,2.82,20.556,8.46c5.735,5.641,8.604,12.445,8.604,20.412
		c0,7.968-2.869,14.749-8.604,20.34c-5.736,5.593-12.589,8.388-20.556,8.388c-7.969,0-14.809-2.795-20.521-8.388
		c-5.712-5.591-8.567-12.372-8.567-20.34c0-7.967,2.855-14.771,8.567-20.412C508.971,23.14,515.811,20.319,523.779,20.319z
		 M523.779,31.768c-4.752,0-8.772,1.717-12.061,5.148c-3.288,3.432-4.932,7.524-4.932,12.276s1.644,8.82,4.932,12.204
		c3.288,3.384,7.309,5.076,12.061,5.076s8.784-1.692,12.096-5.076c3.313-3.384,4.968-7.452,4.968-12.204s-1.655-8.844-4.968-12.276
		C532.563,33.484,528.531,31.768,523.779,31.768z"/>
	<path fill="#FFFFFF" d="M569.714,49.191c0,4.752,1.656,8.82,4.968,12.204c3.313,3.384,7.345,5.076,12.097,5.076h5.544
		c3.168,0,5.867,1.116,8.1,3.348s3.348,4.932,3.348,8.1h-16.991c-7.969,0-14.821-2.795-20.557-8.388
		c-5.736-5.591-8.604-12.372-8.604-20.34V20.319c3.312,0,6.155,1.188,8.531,3.564c2.377,2.376,3.564,5.22,3.564,8.532V49.191z"/>
	<path fill="#FFFFFF" d="M663.673,42.855c0-6.239,2.242-11.556,6.732-15.948c4.486-4.392,9.875-6.588,16.164-6.588h16.559
		c0,3.216-1.127,5.929-3.383,8.136c-2.258,2.208-4.994,3.312-8.209,3.312h-2.52c-3.697,0-6.852,1.332-9.469,3.996
		c-2.615,2.664-3.924,5.868-3.924,9.612v10.008c0,6.241-2.232,11.556-6.695,15.948c-4.465,4.392-9.84,6.588-16.129,6.588h-16.559
		c0-3.168,1.115-5.868,3.348-8.1s4.932-3.348,8.1-3.348h2.592c3.744,0,6.912-1.332,9.504-3.996s3.889-5.868,3.889-9.612V42.855z"/>
	<path fill="#FFFFFF" d="M762.599,21.184c0,3.168-1.115,5.868-3.348,8.1c-2.23,2.232-4.932,3.348-8.1,3.348h-11.52v45.288
		c-3.313,0-6.156-1.188-8.533-3.564c-2.375-2.376-3.563-5.22-3.563-8.532V32.631h-11.521c-3.168,0-5.867-1.116-8.1-3.348
		c-2.23-2.232-3.348-4.932-3.348-8.1H762.599z"/>
	<path fill="#FFFFFF" d="M811.774,32.416c0-3.312,1.189-6.156,3.564-8.532c2.377-2.376,5.221-3.564,8.533-3.564v28.728
		c0,7.968-2.857,14.772-8.568,20.412c-5.713,5.641-12.553,8.46-20.52,8.46c-8.018,0-14.881-2.819-20.594-8.46
		c-5.711-5.64-8.566-12.444-8.566-20.412V20.319c3.311,0,6.154,1.188,8.531,3.564s3.564,5.22,3.564,8.532v16.632
		c0,4.752,1.656,8.845,4.967,12.276c3.313,3.433,7.346,5.148,12.098,5.148c4.703,0,8.711-1.728,12.023-5.184
		s4.967-7.536,4.967-12.24V32.416z"/>
	<path fill="#FFFFFF" d="M841.583,65.823c0,3.312-1.188,6.156-3.564,8.532s-5.221,3.564-8.531,3.564V49.047
		c0-7.967,2.867-14.748,8.604-20.34c5.734-5.591,12.588-8.388,20.557-8.388h16.99c0,3.168-1.115,5.868-3.348,8.1
		s-4.932,3.348-8.1,3.348h-5.543c-4.752,0-8.785,1.692-12.098,5.076c-3.311,3.384-4.967,7.452-4.967,12.204V65.823z M850.474,45.027
		c-1.078,1.111-1.619,2.487-1.619,4.128c0,1.595,0.551,2.935,1.656,4.022c1.104,1.087,2.447,1.63,4.031,1.63h9.576
		c3.168,0,5.879-1.11,8.137-3.333c2.256-2.222,3.383-4.927,3.383-8.116h-21.096C852.911,43.359,851.554,43.915,850.474,45.027z"/>
	<path fill="#FFFFFF" d="M889.821,65.823c0,3.312-1.188,6.156-3.564,8.532c-2.375,2.376-5.219,3.564-8.531,3.564V49.047
		c0-7.967,2.867-14.748,8.604-20.34c5.736-5.591,12.588-8.388,20.557-8.388h16.992c0,3.168-1.115,5.868-3.348,8.1
		s-4.932,3.348-8.1,3.348h-5.545c-4.752,0-8.783,1.692-12.096,5.076c-3.313,3.384-4.969,7.452-4.969,12.204V65.823z M898.714,45.027
		c-1.08,1.111-1.619,2.487-1.619,4.128c0,1.595,0.551,2.935,1.654,4.022s2.449,1.63,4.033,1.63h9.576
		c3.168,0,5.879-1.11,8.135-3.333c2.256-2.222,3.385-4.927,3.385-8.116h-21.096C901.149,43.359,899.794,43.915,898.714,45.027z"/>
</g>
</svg>
